<svg width="122" height="123" viewBox="0 0 122 123" fill="none" xmlns="http://www.w3.org/2000/svg">
<circle cx="63" cy="61" r="35" fill="#5EC737"/>
<path d="M16.9343 62.9754C15.2991 63.0277 13.9422 61.7033 14.0729 60.0725C14.5969 53.5335 16.5478 47.096 19.8135 41.1765C23.5776 34.3537 28.9773 28.4207 35.5539 23.8813C42.1306 19.342 49.69 16.3304 57.59 15.1024C64.4855 14.0306 71.4627 14.3452 78.0694 16.0128C79.6309 16.407 80.4315 18.0989 79.8418 19.5975C79.3057 20.9598 77.8074 21.6642 76.3881 21.305C70.5408 19.8248 64.3642 19.5443 58.2601 20.4931C51.2781 21.5784 44.5972 24.24 38.7849 28.2518C32.9725 32.2637 28.2003 37.5072 24.8736 43.5371C22.0023 48.7417 20.2811 54.3993 19.8074 60.1476C19.6814 61.6773 18.4684 62.9263 16.9343 62.9754Z" fill="#5EC737" fill-opacity="0.5"/>
<path d="M60.15 70.1C59.9 69.85 59.775 69.554 59.775 69.212C59.775 68.8707 59.9 68.575 60.15 68.325L67.475 61L60.125 53.65C59.8917 53.4167 59.775 53.125 59.775 52.775C59.775 52.425 59.9 52.125 60.15 51.875C60.4 51.625 60.696 51.5 61.038 51.5C61.3794 51.5 61.675 51.625 61.925 51.875L70.325 60.3C70.425 60.4 70.496 60.5083 70.538 60.625C70.5794 60.7417 70.6 60.8667 70.6 61C70.6 61.1333 70.5794 61.2583 70.538 61.375C70.496 61.4917 70.425 61.6 70.325 61.7L61.9 70.125C61.6667 70.3583 61.3794 70.475 61.038 70.475C60.696 70.475 60.4 70.35 60.15 70.1Z" fill="#F5F6FB"/>
</svg>
